HIERARCHY
ROOT Pelvis
{
	OFFSET 0.000000 0.000000 0.000000
	CHANNELS 6 Xposition Yposition Zposition Xrotation Yrotation Zrotation
	JOINT LeftUpLeg_virtual
	{
		OFFSET 0.000000 0.000000 0.000000
		CHANNELS 3 Xrotation Yrotation Zrotation
		JOINT LeftUpLeg
		{
			OFFSET 8.479700 -4.795502 -0.379100
			CHANNELS 3 Xrotation Yrotation Zrotation
			JOINT LeftLeg
			{
				OFFSET 0.024144 -32.555107 0.112900
				CHANNELS 3 Xrotation Yrotation Zrotation
				JOINT LeftFoot
				{
					OFFSET -0.024144 -32.638630 -3.012600
					CHANNELS 3 Xrotation Yrotation Zrotation
					JOINT LeftToeBase
					{
						OFFSET 0.970200 -13.225400 11.864200
						CHANNELS 3 Xrotation Yrotation Zrotation
						End Site
						{
							OFFSET 0 0 0
						}
					}
				}
			}
		}
	}
	JOINT RightUpLeg_virtual
	{
		OFFSET 0.000000 0.000000 0.000000
		CHANNELS 3 Xrotation Yrotation Zrotation
		JOINT RightUpLeg
		{
			OFFSET -8.479700 -4.795502 -0.379100
			CHANNELS 3 Xrotation Yrotation Zrotation
			JOINT RightLeg
			{
				OFFSET -0.023144 -32.555092 0.112900
				CHANNELS 3 Xrotation Yrotation Zrotation
				JOINT RightFoot
				{
					OFFSET 0.023144 -32.638641 -3.012700
					CHANNELS 3 Xrotation Yrotation Zrotation
					JOINT RightToeBase
					{
						OFFSET -0.970200 -13.225400 11.864200
						CHANNELS 3 Xrotation Yrotation Zrotation
						End Site
						{
							OFFSET 0 0 0
						}
					}
				}
			}
		}
	}
	JOINT Hips_virtual
	{
		OFFSET 0.000000 0.000000 0.000000
		CHANNELS 3 Xrotation Yrotation Zrotation
		JOINT Hips
		{
			OFFSET -0.000000 -0.000000 -0.000000
			CHANNELS 3 Xrotation Yrotation Zrotation
			JOINT Spine
			{
				OFFSET 0.000000 7.722000 1.166200
				CHANNELS 3 Xrotation Yrotation Zrotation
				JOINT Spine1
				{
					OFFSET 0.000000 12.024101 0.248800
					CHANNELS 3 Xrotation Yrotation Zrotation
					JOINT Spine2
					{
						OFFSET 0.000000 11.502998 -0.491200
						CHANNELS 3 Xrotation Yrotation Zrotation
						JOINT Neck_virtual
						{
							OFFSET 0.000000 0.000000 0.000000
							CHANNELS 3 Xrotation Yrotation Zrotation
							JOINT Neck
							{
								OFFSET 0.000000 18.430702 -3.123100
								CHANNELS 3 Xrotation Yrotation Zrotation
								JOINT Head
								{
									OFFSET 0.000000 9.051102 1.034000
									CHANNELS 3 Xrotation Yrotation Zrotation
									End Site
									{
										OFFSET 0 0 0
									}
								}
							}
						}
						JOINT LeftShoulder_virtual
						{
							OFFSET 0.000000 0.000000 0.000000
							CHANNELS 3 Xrotation Yrotation Zrotation
							JOINT LeftShoulder
							{
								OFFSET 6.197800 13.665199 -4.064700
								CHANNELS 3 Xrotation Yrotation Zrotation
								JOINT LeftArm
								{
									OFFSET 7.778100 -0.187103 -1.709300
									CHANNELS 3 Xrotation Yrotation Zrotation
									JOINT LeftForeArm
									{
										OFFSET 22.049376 0.000000 0.000000
										CHANNELS 3 Xrotation Yrotation Zrotation
										JOINT LeftHand
										{
											OFFSET 23.009392 0.000000 0.000000
											CHANNELS 3 Xrotation Yrotation Zrotation
											End Site
											{
												OFFSET 0 0 0
											}
										}
									}
								}
							}
						}
						JOINT RightShoulder_virtual
						{
							OFFSET 0.000000 0.000000 0.000000
							CHANNELS 3 Xrotation Yrotation Zrotation
							JOINT RightShoulder
							{
								OFFSET -6.197800 13.665199 -4.064700
								CHANNELS 3 Xrotation Yrotation Zrotation
								JOINT RightArm
								{
									OFFSET -7.778100 -0.187103 -1.709300
									CHANNELS 3 Xrotation Yrotation Zrotation
									JOINT RightForeArm
									{
										OFFSET -22.049376 0.000000 0.000000
										CHANNELS 3 Xrotation Yrotation Zrotation
										JOINT RightHand
										{
											OFFSET -23.009392 0.000000 0.000000
											CHANNELS 3 Xrotation Yrotation Zrotation
											End Site
											{
												OFFSET 0 0 0
											}
										}
									}
								}
							}
						}
					}
				}
			}
		}
	}
}
MOTION
Frames: 6
Frame Time: 0.03333333
-9.045388 70.598526 3.227846 0.000000 0.000000 0.000000 5.782467 -41.326097 12.644734 -52.360835 32.644151 37.009667 39.761031 -27.840712 2.334655 0.464128 1.789176 -14.412573 0.000000 0.000000 0.000000 5.782467 -41.326097 12.644734 -21.139244 -7.724510 -29.972318 53.407746 1.060617 -6.834859 -37.143737 -6.911965 22.750436 0.000000 0.000000 0.000000 5.782467 -41.326097 12.644734 0.000000 -0.000001 0.000000 17.900876 -5.837818 2.833299 28.909028 -4.182649 -1.799673 0.000000 0.000000 0.000000 17.801735 -2.616839 -3.497805 3.925425 -0.806463 17.439377 0.000000 0.000000 0.000000 17.801735 -2.616839 -3.497805 2.354303 -30.783092 2.356277 -34.242826 -26.233529 -29.291417 -7.515793 -26.361390 1.290823 0.000000 0.000000 0.000000 17.801735 -2.616839 -3.497805 -0.512607 12.805421 24.404319 -20.406286 -19.745811 20.483666 -21.210729 81.262859 19.902917 0.000000 0.000000 0.000000 
-8.675598 70.777611 3.292921 0.000000 0.000000 0.000000 4.240510 -40.785928 11.166089 -51.999712 32.762409 37.191732 39.822499 -28.024871 2.329707 0.695650 0.983041 -13.755233 0.000000 0.000000 0.000000 4.240510 -40.785928 11.166089 -19.592372 -8.520239 -29.811027 52.385860 0.916510 -6.769400 -36.485593 -6.989450 23.005332 0.000000 0.000000 0.000000 4.240510 -40.785928 11.166089 0.000000 -0.000002 0.000000 17.678553 -5.712780 2.759447 28.357197 -3.983560 -2.018761 0.000000 0.000000 0.000000 17.259835 -2.365361 -3.582329 3.399012 0.434955 18.470290 0.000000 0.000000 0.000000 17.259835 -2.365361 -3.582329 2.328556 -30.676866 2.585237 -33.628826 -25.347561 -29.746519 -7.805145 -23.996575 1.221993 0.000000 0.000000 0.000000 17.259835 -2.365361 -3.582329 -0.608459 13.107894 25.085202 -20.872672 -20.553211 19.261004 -11.666997 82.321360 10.693488 0.000000 0.000000 0.000000 
-8.332804 70.927986 3.378054 0.000000 0.000000 0.000000 3.014908 -40.053582 9.873085 -51.949449 32.794901 37.387011 39.981352 -28.236478 2.331268 0.915825 0.130937 -13.068332 0.000000 0.000000 0.000000 3.014908 -40.053582 9.873085 -18.134823 -9.269468 -29.497582 51.368999 0.665814 -6.710975 -35.860863 -7.225420 23.274018 0.000000 0.000000 0.000000 3.014908 -40.053582 9.873085 0.000000 0.000001 0.000000 17.478145 -5.509230 2.832972 27.805756 -3.750698 -1.987551 0.000000 0.000000 0.000000 16.722212 -2.190762 -3.347004 2.348158 1.128150 18.345326 0.000000 0.000000 0.000000 16.722212 -2.190762 -3.347004 2.243009 -30.396220 2.625584 -33.029190 -24.760057 -30.398122 -7.945673 -22.391734 0.965501 0.000000 0.000000 0.000000 16.722212 -2.190762 -3.347004 -0.501974 12.543247 24.284787 -20.300874 -21.057224 19.750069 -3.535616 83.023996 2.884499 0.000000 0.000000 0.000000 
-7.992720 71.073875 3.466753 0.000000 0.000000 0.000000 1.936954 -39.206399 8.723781 -51.964629 32.840888 37.499508 40.112116 -28.447775 2.330585 1.172088 -0.750650 -12.365820 0.000000 0.000000 0.000000 1.936954 -39.206399 8.723781 -16.708473 -9.994085 -29.158146 50.331288 0.366635 -6.652915 -35.228504 -7.532915 23.552297 0.000000 0.000000 0.000000 1.936954 -39.206399 8.723781 0.000000 0.000002 0.000000 17.248268 -5.310881 2.884612 27.212097 -3.554405 -1.949097 0.000000 0.000000 0.000000 16.129912 -2.065771 -3.134682 1.254579 1.689145 17.729143 0.000000 0.000000 0.000000 16.129912 -2.065771 -3.134682 2.180221 -30.084695 2.687288 -32.508941 -24.092767 -31.048172 -8.013986 -21.085953 0.699053 0.000000 0.000000 0.000000 16.129912 -2.065771 -3.134682 -0.531453 12.423656 23.593302 -19.558387 -22.044741 20.084142 3.473049 83.560261 -3.939693 0.000000 0.000000 0.000000 
-7.633336 71.205467 3.565130 0.000000 0.000000 0.000000 0.971356 -38.237964 7.663345 -52.095950 32.871914 37.570955 40.311667 -28.669791 2.335000 1.437158 -1.676957 -11.603261 0.000000 0.000000 0.000000 0.971356 -38.237964 7.663345 -15.291410 -10.709165 -28.782571 49.278715 0.021827 -6.595564 -34.579622 -7.912770 23.855739 0.000000 0.000000 0.000000 0.971356 -38.237964 7.663345 -0.000000 -0.000002 -0.000001 16.968891 -5.071336 2.921766 26.497511 -3.322633 -1.871167 0.000000 0.000000 0.000000 15.414543 -1.914821 -2.870126 0.122196 2.140498 16.791709 0.000000 0.000000 0.000000 15.414543 -1.914821 -2.870126 2.094838 -29.741266 2.683927 -32.458295 -24.179754 -32.033898 -7.953852 -18.514145 0.568114 0.000000 0.000000 0.000000 15.414543 -1.914821 -2.870126 -0.581436 12.172554 22.633323 -18.476229 -23.129495 20.926062 8.441662 83.819556 -8.872391 0.000000 0.000000 0.000000 
-7.246274 71.317307 3.643356 0.000000 0.000000 0.000000 0.444348 -37.462560 6.899683 -52.477713 32.856516 37.651834 40.565586 -28.788957 2.349488 1.659558 -2.434053 -10.894808 0.000000 0.000000 0.000000 0.444348 -37.462560 6.899683 -14.323251 -11.152999 -28.381277 48.370303 -0.301769 -6.546687 -33.917862 -8.247431 24.149881 0.000000 0.000000 0.000000 0.444348 -37.462560 6.899683 0.000000 0.000001 0.000000 16.665411 -4.805713 2.934867 25.694743 -3.058032 -1.812183 0.000000 0.000000 0.000000 14.600557 -1.729661 -2.630728 -1.047856 2.501032 15.709572 0.000000 0.000000 0.000000 14.600557 -1.729661 -2.630728 2.003539 -29.369735 2.652562 -32.151364 -23.761171 -32.868021 -7.911240 -17.129754 0.318773 0.000000 0.000000 0.000000 14.600557 -1.729661 -2.630728 -0.689641 12.059403 21.568686 -17.317840 -24.231768 21.746190 11.488065 83.685336 -11.687208 0.000000 0.000000 0.000000 
